<svg xmlns="http://www.w3.org/2000/svg" width="40" height="40" fill="none"><rect id="backgroundrect" width="100%" height="100%" x="0" y="0" fill="none" stroke="none"/>





<defs>
<filter id="filter0_d_0:188" x="0" y="-6" width="120" height="120" filterUnits="userSpaceOnUse" color-interpolation-filters="sRGB">
<feFlood flood-opacity="0" result="BackgroundImageFix"/>
<feColorMatrix in="SourceAlpha" type="matrix" values="0 0 0 0 0 0 0 0 0 0 0 0 0 0 0 0 0 0 127 0" result="hardAlpha"/>
<feOffset dy="4"/>
<feGaussianBlur stdDeviation="20"/>
<feComposite in2="hardAlpha" operator="out"/>
<feColorMatrix type="matrix" values="0 0 0 0 0.766667 0 0 0 0 0.786667 0 0 0 0 0.8 0 0 0 0.15 0"/>
<feBlend mode="normal" in2="BackgroundImageFix" result="effect1_dropShadow_0:188"/>
<feBlend mode="normal" in="SourceGraphic" in2="effect1_dropShadow_0:188" result="shape"/>
</filter>
</defs>
<g class="currentLayer" style=""><title>Layer 1</title><g filter="url(#filter0_d_0:188)" id="svg_1" class="">
<circle cx="20" cy="20" r="20" fill="#F1F4F8" id="svg_2"/>
</g><path d="M27.5916,15.7316 C27.274,15.356900000000003 26.812399999999997,15.141399999999997 26.326800000000006,15.141399999999997 H17.731 C17.3998,15.141399999999997 17.131,15.415700000000001 17.131,15.753599999999999 C17.131,16.0916 17.3998,16.365900000000003 17.731,16.365900000000003 H26.326800000000006 C26.514799999999994,16.365900000000003 26.631600000000006,16.470399999999998 26.684399999999997,16.532400000000003 C26.7372,16.5953 26.822000000000003,16.7284 26.794799999999995,16.9178 L26.035600000000002,22.2723 C25.9756,22.692 25.617199999999997,23.008699999999997 25.2012,23.008699999999997 H16.4726 C16.030299999999997,23.008699999999997 15.6695,22.6699 15.6327,22.2209 L14.862299999999998,12.8555 C14.8399,12.5779 14.6359,12.350200000000001 14.3671,12.302799999999998 L12.702300000000001,12.008099999999999 C12.371899999999997,11.9542 12.064799999999998,12.1738 12.0088,12.5077 C11.952800000000003,12.840800000000002 12.171199999999999,13.157600000000002 12.497500000000002,13.215499999999999 L13.7055,13.428600000000003 L14.436700000000002,22.323 C14.526299999999999,23.412 15.401499999999999,24.2333 16.4726,24.2333 H25.2012 C26.209999999999994,24.2333 27.0788,23.465899999999998 27.222800000000007,22.447899999999997 L27.982799999999997,17.0933 C28.052400000000006,16.601799999999997 27.9092,16.106299999999997 27.5916,15.7316 z" fill="#07172E" id="svg_3" class=""/><path d="M15.126399999999997,26.764000000000003 C15.126399999999997,26.082299999999996 15.670299999999997,25.5272 16.338299999999997,25.5272 C17.006300000000003,25.5272 17.549500000000002,26.082299999999996 17.549500000000002,26.764000000000003 C17.549500000000002,27.445700000000002 17.006300000000003,28 16.338299999999997,28 C15.670299999999997,28 15.126399999999997,27.445700000000002 15.126399999999997,26.764000000000003 z" fill="#07172E" id="svg_4" class=""/><path d="M24.128500000000003,26.764000000000003 C24.128500000000003,26.082299999999996 24.6717,25.5272 25.339699999999993,25.5272 C26.0077,25.5272 26.551699999999997,26.082299999999996 26.551699999999997,26.764000000000003 C26.551699999999997,27.445700000000002 26.0077,28 25.339699999999993,28 C24.6717,28 24.128500000000003,27.445700000000002 24.128500000000003,26.764000000000003 z" fill="#07172E" id="svg_5" class=""/><path d="M24.519000000000005,18.7714 C24.519000000000005,19.1094 24.250200000000007,19.383699999999997 23.918999999999997,19.383699999999997 H21.700699999999998 C21.368699999999997,19.383699999999997 21.100700000000003,19.1094 21.100700000000003,18.7714 C21.100700000000003,18.4334 21.368699999999997,18.159100000000002 21.700699999999998,18.159100000000002 H23.918999999999997 C24.250200000000007,18.159100000000002 24.519000000000005,18.4334 24.519000000000005,18.7714 z" fill="#07172E" id="svg_6" class=""/></g></svg>