<svg xmlns="http://www.w3.org/2000/svg" width="40" height="40" fill="none" style=""><rect id="backgroundrect" width="100%" height="100%" x="0" y="0" fill="none" stroke="none"/>



<defs>
<filter id="filter0_d_0:185" x="0" y="-6" width="120" height="120" filterUnits="userSpaceOnUse" color-interpolation-filters="sRGB">
<feFlood flood-opacity="0" result="BackgroundImageFix"/>
<feColorMatrix in="SourceAlpha" type="matrix" values="0 0 0 0 0 0 0 0 0 0 0 0 0 0 0 0 0 0 127 0" result="hardAlpha"/>
<feOffset dy="4"/>
<feGaussianBlur stdDeviation="20"/>
<feComposite in2="hardAlpha" operator="out"/>
<feColorMatrix type="matrix" values="0 0 0 0 0.766667 0 0 0 0 0.786667 0 0 0 0 0.8 0 0 0 0.15 0"/>
<feBlend mode="normal" in2="BackgroundImageFix" result="effect1_dropShadow_0:185"/>
<feBlend mode="normal" in="SourceGraphic" in2="effect1_dropShadow_0:185" result="shape"/>
</filter>
</defs>
<g class="currentLayer" style=""><title>Layer 1</title><g filter="url(#filter0_d_0:185)" id="svg_1" class="">
<circle cx="20" cy="20" r="20" fill="#F1F4F8" id="svg_2"/>
</g><path d="M27.0907,16.506 C27.659000000000006,16.967799999999997 27.9927,17.662599999999998 28,18.399500000000003 L27.9931,24.830199999999998 C27.9931,26.576999999999998 26.591499999999996,27.993000000000002 24.8626,27.993000000000002 H23.4743 C22.637500000000003,27.993000000000002 21.958,27.3097 21.9542,26.464199999999998 V23.560899999999997 C21.9542,23.3363 21.773899999999998,23.154200000000003 21.5516,23.154200000000003 H19.4692 C19.361199999999997,23.1541 19.257800000000003,23.198 19.1821,23.275799999999997 C19.1064,23.3536 19.064799999999998,23.458799999999997 19.0666,23.5679 V24.6759 C19.0666,25.024500000000003 18.786900000000003,25.3071 18.441899999999997,25.3071 C18.096899999999998,25.3071 17.8172,25.024500000000003 17.8172,24.6759 V23.5679 C17.8172,23.123399999999997 17.991999999999997,22.6971 18.3031,22.382800000000003 C18.614199999999997,22.068399999999997 19.0362,21.8919 19.4762,21.8919 H21.558500000000002 C22.472,21.895699999999998 23.2106,22.645000000000003 23.210500000000003,23.5679 V26.464199999999998 C23.210500000000003,26.611400000000003 23.3286,26.7307 23.4743,26.7307 H24.8973 C25.932299999999998,26.7307 26.7714,25.883000000000003 26.7714,24.837200000000003 V18.4135 C26.7663,18.0576 26.6032,17.722900000000003 26.327200000000005,17.501800000000003 L21.5308,13.637799999999999 C20.926000000000002,13.134700000000002 20.053199999999997,13.134700000000002 19.4484,13.637799999999999 L17.9075,14.801900000000003 C17.621899999999997,15.009099999999997 17.2241,14.943199999999997 17.019,14.654600000000002 C16.813899999999997,14.366100000000003 16.8791,13.964199999999998 17.164700000000003,13.756999999999998 L18.6849,12.642000000000003 C19.7389,11.786000000000001 21.240299999999998,11.786000000000001 22.2943,12.642000000000003 L27.0907,16.506 z" fill="#07172E" id="svg_3" class=""/><path d="M16.130499999999998,26.7237 H19.323500000000003 V26.737699999999997 C19.6685,26.737699999999997 19.9482,27.0203 19.9482,27.3688 C19.9482,27.717399999999998 19.6685,28 19.323500000000003,28 H16.130499999999998 C14.403199999999998,27.9961 13.003799999999998,26.5824 13,24.837200000000003 V18.4135 C13.011000000000003,17.6712 13.355899999999998,16.9743 13.937100000000001,16.520000000000003 L14.513199999999998,16.085299999999997 C14.784500000000001,15.956000000000003 15.108400000000003,16.039900000000003 15.284799999999997,16.2849 C15.461199999999998,16.53 15.4403,16.8671 15.235100000000003,17.088099999999997 L14.672800000000002,17.508899999999997 C14.406399999999998,17.7325 14.2515,18.0636 14.249400000000001,18.4135 V24.830199999999998 C14.256999999999998,25.875500000000002 15.0959,26.719900000000003 16.130499999999998,26.7237 z" fill="#07172E" id="svg_4" class=""/></g></svg>