<svg xmlns="http://www.w3.org/2000/svg" width="40" height="40" fill="none" style=""><rect id="backgroundrect" width="100%" height="100%" x="0" y="0" fill="none" stroke="none"/>


<defs>
<filter id="filter0_d_0:191" x="0" y="-6" width="120" height="120" filterUnits="userSpaceOnUse" color-interpolation-filters="sRGB">
<feFlood flood-opacity="0" result="BackgroundImageFix"/>
<feColorMatrix in="SourceAlpha" type="matrix" values="0 0 0 0 0 0 0 0 0 0 0 0 0 0 0 0 0 0 127 0" result="hardAlpha"/>
<feOffset dy="4"/>
<feGaussianBlur stdDeviation="20"/>
<feComposite in2="hardAlpha" operator="out"/>
<feColorMatrix type="matrix" values="0 0 0 0 0.766667 0 0 0 0 0.786667 0 0 0 0 0.8 0 0 0 0.15 0"/>
<feBlend mode="normal" in2="BackgroundImageFix" result="effect1_dropShadow_0:191"/>
<feBlend mode="normal" in="SourceGraphic" in2="effect1_dropShadow_0:191" result="shape"/>
</filter>
</defs>
<g class="currentLayer" style=""><title>Layer 1</title><g filter="url(#filter0_d_0:191)" id="svg_1" class="">
<circle cx="20" cy="20" r="20" fill="#F1F4F8" id="svg_2"/>
</g><path d="M27.8044,26.885199999999998 L25.054500000000004,24.1967 L24.990099999999998,24.098599999999998 C24.870199999999997,23.979300000000002 24.706400000000002,23.912100000000002 24.535300000000007,23.912100000000002 C24.3643,23.912100000000002 24.200400000000002,23.979300000000002 24.080600000000004,24.098599999999998 C21.7436,26.2427 18.1425,26.3592 15.665599999999998,24.371000000000002 C13.188699999999997,22.3827 12.604500000000002,18.9067 14.3005,16.2481 C15.9966,13.589599999999997 19.4465,12.573500000000003 22.362299999999998,13.8737 C25.278099999999995,15.173900000000003 26.754999999999995,18.387 25.813599999999994,21.3821 C25.745800000000003,21.598399999999998 25.801199999999994,21.8337 25.959000000000003,21.999299999999998 C26.116699999999994,22.164900000000003 26.352900000000005,22.235599999999998 26.578400000000002,22.1849 C26.804000000000002,22.134099999999997 26.984700000000004,21.969499999999996 27.052499999999995,21.7532 C28.177899999999994,18.198900000000002 26.4782,14.374000000000002 23.0529,12.7528 C19.6276,11.131599999999999 15.5047,12.200699999999998 13.351199999999999,15.268300000000004 C11.1978,18.336 11.6601,22.481700000000004 14.439100000000003,25.023600000000002 C17.2181,27.5655 21.479799999999997,27.740699999999997 24.467299999999994,25.435899999999997 L26.902100000000004,27.8164 C27.153599999999997,28.0612 27.560100000000006,28.0612 27.8116,27.8164 C28.062799999999996,27.568199999999997 28.062799999999996,27.1685 27.8116,26.9202 L27.8044,26.885199999999998 z" fill="#07172E" id="svg_3" class=""/></g></svg>